HIERARCHY
ROOT Hips
{
    OFFSET 0.000000 0.000000 0.000000
    CHANNELS 6 Xposition Yposition Zposition Zrotation Yrotation Xrotation
    JOINT Chest
    {
        OFFSET 0.000000 1.634758 -0.000000
        CHANNELS 3 Zrotation Yrotation Xrotation
        JOINT Chest2
        {
            OFFSET 0.000000 2.197341 0.000000
            CHANNELS 3 Zrotation Yrotation Xrotation
            JOINT Neck
            {
                OFFSET 0.000000 0.961544 0.000000
                CHANNELS 3 Zrotation Yrotation Xrotation
                JOINT Head
                {
                    OFFSET 0.000000 0.632542 -0.032565
                    CHANNELS 3 Zrotation Yrotation Xrotation
                    End Site
                    {
                        OFFSET -0.000001 0.439502 2.922845
                    }
                }
            }
            JOINT LeftCollar
            {
                OFFSET 0.167536 0.778237 -0.168280
                CHANNELS 3 Zrotation Yrotation Xrotation
                JOINT LeftShoulder
                {
                    OFFSET 0.831514 -0.002900 0.006458
                    CHANNELS 3 Zrotation Yrotation Xrotation
                    JOINT LeftElbow
                    {
                        OFFSET 2.272872 -0.026639 0.059314
                        CHANNELS 3 Zrotation Yrotation Xrotation
                        JOINT LeftWrist
                        {
                            OFFSET 2.081982 -0.024402 0.054333
                            CHANNELS 3 Zrotation Yrotation Xrotation
                            JOINT LeftHandThumb1
                            {
                                OFFSET 0.218903 -0.128645 0.283837
                                CHANNELS 3 Zrotation Yrotation Xrotation
                                JOINT LeftHandThumb2
                                {
                                    OFFSET 0.137157 -0.025101 0.077902
                                    CHANNELS 3 Zrotation Yrotation Xrotation
                                    JOINT LeftHandThumb3
                                    {
                                        OFFSET 0.167137 -0.070131 0.026198
                                        CHANNELS 3 Zrotation Yrotation Xrotation
                                        End Site
                                        {
                                            OFFSET 0.245401 -0.048352 0.096315
                                        }
                                    }
                                }
                            }
                            JOINT LeftHandFore1
                            {
                                OFFSET 0.767340 -0.016076 0.196678
                                CHANNELS 3 Zrotation Yrotation Xrotation
                                JOINT LeftHandFore2
                                {
                                    OFFSET 0.209120 -0.055893 0.011830
                                    CHANNELS 3 Zrotation Yrotation Xrotation
                                    JOINT LeftHandFore3
                                    {
                                        OFFSET 0.124516 -0.034785 0.006988
                                        CHANNELS 3 Zrotation Yrotation Xrotation
                                        End Site
                                        {
                                            OFFSET 0.188190 -0.043757 0.006071
                                        }
                                    }
                                }
                            }
                            JOINT LeftHandMiddle1
                            {
                                OFFSET 0.709887 -0.008320 0.018526
                                CHANNELS 3 Zrotation Yrotation Xrotation
                                JOINT LeftHandMiddle2
                                {
                                    OFFSET 0.219754 -0.108168 0.008454
                                    CHANNELS 3 Zrotation Yrotation Xrotation
                                    JOINT LeftHandMiddle3
                                    {
                                        OFFSET 0.110381 -0.095738 0.005786
                                        CHANNELS 3 Zrotation Yrotation Xrotation
                                        End Site
                                        {
                                            OFFSET 0.189745 -0.139775 0.009488
                                        }
                                    }
                                }
                            }
                            JOINT LeftHandRing1
                            {
                                OFFSET 0.743817 -0.005823 -0.153668
                                CHANNELS 3 Zrotation Yrotation Xrotation
                                JOINT LeftHandRing2
                                {
                                    OFFSET 0.274584 -0.221611 0.015020
                                    CHANNELS 3 Zrotation Yrotation Xrotation
                                    JOINT LeftHandRing3
                                    {
                                        OFFSET 0.081311 -0.108826 0.012288
                                        CHANNELS 3 Zrotation Yrotation Xrotation
                                        End Site
                                        {
                                            OFFSET 0.075702 -0.092627 0.010457
                                        }
                                    }
                                }
                            }
                            JOINT LeftHandLittle1
                            {
                                OFFSET 0.689408 -0.053302 -0.308304
                                CHANNELS 3 Zrotation Yrotation Xrotation
                                JOINT LeftHandLittle2
                                {
                                    OFFSET 0.156348 -0.116599 -0.003736
                                    CHANNELS 3 Zrotation Yrotation Xrotation
                                    JOINT LeftHandLittle3
                                    {
                                        OFFSET 0.050421 -0.109329 0.001022
                                        CHANNELS 3 Zrotation Yrotation Xrotation
                                        End Site
                                        {
                                            OFFSET 0.119074 -0.148563 0.006236
                                        }
                                    }
                                }
                            }
                        }
                    }
                }
            }
            JOINT RightCollar
            {
                OFFSET -0.167536 0.778237 -0.168280
                CHANNELS 3 Zrotation Yrotation Xrotation
                JOINT RightShoulder
                {
                    OFFSET -0.831514 -0.002900 0.006457
                    CHANNELS 3 Zrotation Yrotation Xrotation
                    JOINT RightElbow
                    {
                        OFFSET -2.272872 -0.026639 0.059313
                        CHANNELS 3 Zrotation Yrotation Xrotation
                        JOINT RightWrist
                        {
                            OFFSET -2.081982 -0.024402 0.054331
                            CHANNELS 3 Zrotation Yrotation Xrotation
                            JOINT RightHandThumb1
                            {
                                OFFSET -0.218911 -0.128571 0.283837
                                CHANNELS 3 Zrotation Yrotation Xrotation
                                JOINT RightHandThumb2
                                {
                                    OFFSET -0.137157 -0.025101 0.077902
                                    CHANNELS 3 Zrotation Yrotation Xrotation
                                    JOINT RightHandThumb3
                                    {
                                        OFFSET -0.163124 -0.077275 0.030962
                                        CHANNELS 3 Zrotation Yrotation Xrotation
                                        End Site
                                        {
                                            OFFSET -0.229312 -0.077057 0.115389
                                        }
                                    }
                                }
                            }
                            JOINT RightHandFore1
                            {
                                OFFSET -0.767344 -0.015991 0.196679
                                CHANNELS 3 Zrotation Yrotation Xrotation
                                JOINT RightHandFore2
                                {
                                    OFFSET -0.209136 -0.055846 0.011830
                                    CHANNELS 3 Zrotation Yrotation Xrotation
                                    JOINT RightHandFore3
                                    {
                                        OFFSET -0.124512 -0.034753 0.007148
                                        CHANNELS 3 Zrotation Yrotation Xrotation
                                        End Site
                                        {
                                            OFFSET -0.187727 -0.043598 0.014983
                                        }
                                    }
                                }
                            }
                            JOINT RightHandMiddle1
                            {
                                OFFSET -0.709887 -0.008302 0.018525
                                CHANNELS 3 Zrotation Yrotation Xrotation
                                JOINT RightHandMiddle2
                                {
                                    OFFSET -0.219740 -0.108188 0.008455
                                    CHANNELS 3 Zrotation Yrotation Xrotation
                                    JOINT RightHandMiddle3
                                    {
                                        OFFSET -0.110447 -0.095776 0.003605
                                        CHANNELS 3 Zrotation Yrotation Xrotation
                                        End Site
                                        {
                                            OFFSET -0.189858 -0.139810 0.006118
                                        }
                                    }
                                }
                            }
                            JOINT RightHandRing1
                            {
                                OFFSET -0.743819 -0.005785 -0.153669
                                CHANNELS 3 Zrotation Yrotation Xrotation
                                JOINT RightHandRing2
                                {
                                    OFFSET -0.274600 -0.221591 0.015020
                                    CHANNELS 3 Zrotation Yrotation Xrotation
                                    JOINT RightHandRing3
                                    {
                                        OFFSET -0.081497 -0.109375 0.000580
                                        CHANNELS 3 Zrotation Yrotation Xrotation
                                        End Site
                                        {
                                            OFFSET -0.075858 -0.093087 0.000727
                                        }
                                    }
                                }
                            }
                            JOINT RightHandLittle1
                            {
                                OFFSET -0.689403 -0.053298 -0.308303
                                CHANNELS 3 Zrotation Yrotation Xrotation
                                JOINT RightHandLittle2
                                {
                                    OFFSET -0.156354 -0.116596 -0.003737
                                    CHANNELS 3 Zrotation Yrotation Xrotation
                                    JOINT RightHandLittle3
                                    {
                                        OFFSET -0.050537 -0.109237 0.003003
                                        CHANNELS 3 Zrotation Yrotation Xrotation
                                        End Site
                                        {
                                            OFFSET -0.118317 -0.149157 -0.006487
                                        }
                                    }
                                }
                            }
                        }
                    }
                }
            }
        }
    }
    JOINT LeftHip
    {
        OFFSET 0.685143 0.673822 -0.044491
        CHANNELS 3 Zrotation Yrotation Xrotation
        JOINT LeftKnee
        {
            OFFSET 0.085364 -3.750208 0.017676
            CHANNELS 3 Zrotation Yrotation Xrotation
            JOINT LeftAnkle
            {
                OFFSET 0.094583 -4.155206 0.019585
                CHANNELS 3 Zrotation Yrotation Xrotation
                JOINT LeftToe
                {
                    OFFSET -0.000000 -0.395925 0.621478
                    CHANNELS 3 Zrotation Yrotation Xrotation
                    End Site
                    {
                        OFFSET -0.000000 -0.077878 0.321152
                    }
                }
            }
        }
    }
    JOINT RightHip
    {
        OFFSET -0.685143 0.673822 -0.044492
        CHANNELS 3 Zrotation Yrotation Xrotation
        JOINT RightKnee
        {
            OFFSET -0.085364 -3.750208 0.017677
            CHANNELS 3 Zrotation Yrotation Xrotation
            JOINT RightAnkle
            {
                OFFSET -0.094583 -4.155206 0.019585
                CHANNELS 3 Zrotation Yrotation Xrotation
                JOINT RightToe
                {
                    OFFSET -0.000000 -0.395925 0.621478
                    CHANNELS 3 Zrotation Yrotation Xrotation
                    End Site
                    {
                        OFFSET -0.000000 -0.077878 0.321152
                    }
                }
            }
        }
    }
}
MOTION
Frames: 4
Frame Time: 0.033333
-7.308690 8.142319 2.032940 -176.962860 0.978446 -173.783981 0.826899 5.685269 2.068684 1.715966 -1.036058 -2.342846 0.630136 2.506194 -0.149347 -0.137230 2.663642 1.880625 -14.947733 5.465003 -0.270567 -70.835442 29.828270 -6.622700 0.114599 -31.595932 -0.412367 -1.164654 2.261362 11.731284 -0.000012 0.000018 0.000007 -17.555265 42.293404 6.849047 1.476751 30.470909 42.691795 -79.611740 -2.375735 -5.375158 -84.780617 -2.450613 0.667621 -87.388664 8.012449 -10.629149 -63.853123 -5.180221 -7.671578 -61.477673 3.571573 -1.830069 -108.387619 4.523622 -3.989129 -52.811321 -5.953728 2.493031 -61.497772 -5.935729 -8.030866 -108.735283 -6.646555 21.258026 -54.284096 -14.998675 7.645550 -48.874001 -6.210819 -12.090649 -94.084351 -21.618927 18.469032 14.325408 0.182517 0.276597 61.644726 -19.528994 0.053432 -0.146089 35.041748 -0.470067 -8.990090 -7.891326 6.536188 -0.000013 0.000001 -0.000010 21.957563 -32.932804 20.501013 41.517826 -33.969337 -16.811501 79.611763 2.373688 -5.376527 84.021942 -5.999132 7.006680 86.525787 4.381525 18.239485 63.853054 5.181840 -7.670649 61.374378 2.684422 5.802899 108.134071 0.733924 9.207107 52.811329 5.953863 2.492661 61.182255 -2.383914 12.569719 108.983200 -4.318058 -12.447002 54.284084 14.998761 7.645713 50.526688 -0.066672 8.811756 93.628532 -9.819049 -19.185732 -1.193427 -1.737762 -29.745106 0.210725 0.710758 33.025280 3.924164 7.877528 -16.115986 -0.000003 -0.000011 -0.000003 1.186183 2.125735 -40.563805 -0.514970 -1.038239 52.764450 0.191778 -1.563258 0.130282 -0.025933 -0.160089 -4.430146
-7.343439 8.272429 2.023602 -178.091522 0.983035 -173.729889 -0.203156 5.059276 2.604782 1.654157 -0.942116 -2.030854 0.618658 2.328359 -0.603124 -0.130463 2.532424 1.013227 -15.016289 4.001748 -0.248879 -67.262238 23.733292 -3.409716 0.091936 -28.686396 -0.366880 1.847523 2.061833 8.844312 0.000004 0.000014 0.000020 -17.555260 42.293404 6.849042 1.476752 30.470915 42.691795 -79.611748 -2.375738 -5.375160 -84.780609 -2.450614 0.667621 -87.388664 8.012447 -10.629148 -63.853130 -5.180223 -7.671585 -61.477657 3.571573 -1.830068 -108.387611 4.523622 -3.989128 -52.811325 -5.953731 2.493030 -61.497768 -5.935729 -8.030867 -108.735283 -6.646557 21.258022 -54.284100 -14.998681 7.645548 -48.874004 -6.210820 -12.090649 -94.084351 -21.618923 18.469036 14.742938 0.421654 0.256416 62.498856 -14.704947 0.451857 -0.082831 27.381943 -0.347311 -9.028199 -8.028378 6.112916 -0.000001 0.000003 -0.000010 21.957563 -32.932804 20.501013 41.517826 -33.969337 -16.811504 79.611763 2.373692 -5.376527 84.021942 -5.999132 7.006680 86.525780 4.381526 18.239485 63.853050 5.181844 -7.670649 61.374386 2.684422 5.802899 108.134064 0.733924 9.207108 52.811298 5.953866 2.492663 61.182255 -2.383914 12.569720 108.983215 -4.318058 -12.447004 54.284077 14.998770 7.645717 50.526688 -0.066672 8.811756 93.628532 -9.819049 -19.185738 -2.470473 -1.650593 -25.457357 0.115417 0.536369 24.285122 4.160811 7.714289 -11.753371 0.000002 0.000009 0.000002 -0.519379 2.229296 -46.367249 -0.711985 -1.161896 62.999355 0.592985 -1.057667 2.641036 -0.000002 -0.000008 0.000005
-7.377327 8.392135 2.011073 -179.182724 0.967892 -173.760437 -1.201919 4.406176 2.653984 1.502552 -0.834618 -1.729400 0.617218 2.074713 -0.796616 -0.117530 2.281720 0.643232 -14.979691 2.469841 -0.221777 -64.022728 16.739567 -0.918933 0.062650 -24.130936 -0.300433 5.731252 1.904984 4.895604 0.000000 0.000007 0.000010 -17.555262 42.293404 6.849043 1.476754 30.470915 42.691795 -79.611740 -2.375737 -5.375158 -84.780609 -2.450614 0.667622 -87.388664 8.012445 -10.629149 -63.853130 -5.180225 -7.671583 -61.477657 3.571575 -1.830067 -108.387627 4.523623 -3.989126 -52.811321 -5.953730 2.493032 -61.497768 -5.935728 -8.030866 -108.735283 -6.646554 21.258022 -54.284103 -14.998677 7.645550 -48.874004 -6.210821 -12.090648 -94.084351 -21.618927 18.469036 15.105023 0.580895 0.230130 63.130478 -8.854328 0.743369 -0.029710 17.039572 -0.205617 -9.508904 -8.149173 5.038828 -0.000002 0.000008 -0.000013 21.957563 -32.932808 20.501013 41.517818 -33.969341 -16.811502 79.611771 2.373692 -5.376528 84.021942 -5.999132 7.006681 86.525780 4.381526 18.239487 63.853054 5.181841 -7.670649 61.374386 2.684421 5.802898 108.134064 0.733923 9.207106 52.811317 5.953867 2.492663 61.182255 -2.383912 12.569720 108.983215 -4.318058 -12.447003 54.284088 14.998766 7.645716 50.526688 -0.066671 8.811751 93.628532 -9.819053 -19.185736 -3.718962 -1.512806 -18.913998 0.026442 0.261258 11.555807 4.697181 7.315094 -5.553302 -0.000002 -0.000007 0.000000 -2.232671 2.314785 -51.551388 -0.904248 -1.241230 72.148682 1.060883 -0.545848 5.625966 -0.000001 -0.000005 0.000003
-7.408214 8.479826 1.995944 179.838272 0.925436 -173.861435 -2.083018 3.727799 2.045134 1.224017 -0.702374 -1.722514 0.627565 1.748099 -0.537541 -0.099083 1.923913 1.143362 -14.831518 1.031663 -0.188013 -61.328606 9.618895 0.801513 0.034693 -18.333464 -0.222295 9.591562 1.784212 0.582095 -0.000008 0.000001 0.000011 -17.555262 42.293404 6.849045 1.476755 30.470915 42.691795 -79.611748 -2.375739 -5.375159 -84.780609 -2.450614 0.667621 -87.388664 8.012446 -10.629149 -63.853130 -5.180225 -7.671579 -61.477665 3.571573 -1.830068 -108.387619 4.523623 -3.989127 -52.811321 -5.953734 2.493033 -61.497772 -5.935730 -8.030867 -108.735283 -6.646556 21.258022 -54.284092 -14.998684 7.645553 -48.874004 -6.210821 -12.090649 -94.084351 -21.618927 18.469036 15.343339 0.556323 0.196033 63.543373 -0.357288 0.782113 0.000000 -0.000000 0.000000 -10.670732 -8.240330 3.643756 -0.000013 0.000008 -0.000005 21.957565 -32.932804 20.501005 41.517834 -33.969345 -16.811495 79.611763 2.373688 -5.376525 84.021942 -5.999128 7.006680 86.525780 4.381524 18.239485 63.853050 5.181843 -7.670644 61.374378 2.684423 5.802899 108.134064 0.733924 9.207106 52.811306 5.953867 2.492666 61.182255 -2.383914 12.569717 108.983208 -4.318057 -12.447004 54.284077 14.998768 7.645719 50.526688 -0.066671 8.811755 93.628532 -9.819049 -19.185740 -4.835929 -1.380258 -12.821588 -0.000000 -0.000000 0.000000 5.219916 6.912158 -0.008237 -0.000002 -0.000008 -0.000003 -3.792209 2.373139 -55.194485 -1.048073 -1.278646 78.682686 1.499270 -0.106935 11.420699 0.000004 0.000015 0.000002
